<?xml version="1.0" encoding="UTF-8"?>
<!DOCTYPE svg PUBLIC "-//W3C//DTD SVG 1.1//EN" "http://www.w3.org/Graphics/SVG/1.1/DTD/svg11.dtd">
<!-- Creator: CorelDRAW -->
<svg xmlns="http://www.w3.org/2000/svg" xml:space="preserve" width="6.8575mm" height="6.8575mm" version="1.1" style="shape-rendering:geometricPrecision; text-rendering:geometricPrecision; image-rendering:optimizeQuality; fill-rule:evenodd; clip-rule:evenodd"
viewBox="0 0 49.22 49.22"
 xmlns:xlink="http://www.w3.org/1999/xlink"
 xmlns:xodm="http://www.corel.com/coreldraw/odm/2003">
 <defs>
  <style type="text/css">
   <![CDATA[
    .fil0 {fill:white;fill-rule:nonzero}
   ]]>
  </style>
 </defs>
 <g id="Layer_x0020_1">
  <metadata id="CorelCorpID_0Corel-Layer"/>
  <path class="fil0" d="M40.1 25.06c-0.67,-0.58 -0.94,-1.5 -0.67,-2.34l0.61 -1.94c0.24,-0.77 -0.45,-1.56 -1.25,-1.42l-1.36 0.25c-1.08,0.2 -2.18,-0.22 -2.86,-1.08 -0.41,-0.52 -1.23,-0.56 -1.68,-0.06l-3.36 3.68 1.63 -8.4c0.14,-0.75 -0.54,-1.45 -1.29,-1.3 -1.46,0.29 -2.95,-0.44 -3.62,-1.76l-0.69 -1.37c-0.4,-0.79 -1.57,-0.79 -1.97,0 -0.32,0.63 -0.6,1.32 -0.99,1.9 -0.33,0.48 0.42,1.03 0.77,0.53 0.42,-0.62 0.72,-1.34 1.06,-2.01 0.1,-0.13 0.21,-0.13 0.31,0l0.69 1.37c0.73,1.44 2.23,2.33 3.81,2.33 0.27,0 0.55,-0.03 0.82,-0.08 0.14,-0 0.21,0.07 0.2,0.21l-1.94 10.03c-0.09,0.45 0.49,0.74 0.8,0.4l4.48 -4.91c0.09,-0.08 0.18,-0.07 0.27,0.01 0.9,1.13 2.34,1.67 3.75,1.41l1.36 -0.25c0.15,0 0.22,0.07 0.2,0.22l-0.61 1.94c-0.38,1.2 -0,2.51 0.95,3.33 0.09,0.09 0.09,0.18 0.01,0.27l-7.6 6.32c-0.15,0.12 -0.21,0.33 -0.14,0.51l0.66 1.85c0.02,0.15 -0.04,0.23 -0.19,0.23l-2.43 -0.41c-0.57,-0.1 -0.76,0.82 -0.16,0.92l2.43 0.41c0.81,0.14 1.5,-0.67 1.23,-1.46l-0.55 -1.55 7.35 -6.11c0.52,-0.43 0.51,-1.26 0,-1.7l0 0zm-12.9 9.04l-2.18 -0.37 -0.93 0 -7.21 1.22c-0.15,-0 -0.22,-0.08 -0.19,-0.23l0.66 -1.85c0.07,-0.18 0.01,-0.39 -0.14,-0.51l-7.47 -6.22c-0.1,-0.11 -0.08,-0.21 0.04,-0.29l1.26 -0.55c0.22,-0.09 0.33,-0.34 0.26,-0.57l-1.33 -4.23c-0.02,-0.15 0.05,-0.22 0.2,-0.22l3.94 0.71c0.21,0.04 0.41,-0.07 0.5,-0.26l0.72 -1.51c0.08,-0.12 0.18,-0.13 0.29,-0.04l4.4 4.83c0.31,0.34 0.89,0.05 0.8,-0.4l-1.94 -9.98c-0,-0.14 0.07,-0.21 0.21,-0.2 0.66,0.15 1.35,0.13 2,-0.06 0.56,-0.16 0.33,-1.06 -0.25,-0.9 -0.5,0.14 -1.04,0.16 -1.55,0.04 -0.76,-0.17 -1.48,0.52 -1.33,1.29l1.62 8.36 -3.29 -3.6c-0.51,-0.56 -1.48,-0.42 -1.81,0.27l-0.57 1.19 -3.59 -0.65c-0.8,-0.14 -1.5,0.64 -1.25,1.42l1.2 3.84 -0.87 0.38c-0.74,0.32 -0.89,1.34 -0.27,1.86l7.22 6.01 -0.55 1.55c-0.28,0.79 0.41,1.59 1.23,1.46l7.05 -1.19 0 5.34c0,0.26 0.21,0.47 0.47,0.47 0.26,0 0.47,-0.21 0.47,-0.47l0 -5.34 2.02 0.34c0.57,0.1 0.76,-0.82 0.16,-0.92l0 0zm-2.58 -34.11c6.79,0 12.95,2.76 17.4,7.21 4.45,4.45 7.21,10.61 7.21,17.4 0,6.79 -2.76,12.95 -7.21,17.4 -4.45,4.45 -10.61,7.21 -17.4,7.21 -6.79,0 -12.95,-2.76 -17.4,-7.21 -4.45,-4.45 -7.21,-10.61 -7.21,-17.4 0,-6.79 2.76,-12.95 7.21,-17.4 4.45,-4.45 10.61,-7.21 17.4,-7.21zm16.68 7.92c-4.27,-4.27 -10.17,-6.91 -16.68,-6.91 -6.52,0 -12.42,2.64 -16.69,6.91 -4.27,4.27 -6.91,10.17 -6.91,16.68 0,6.52 2.64,12.42 6.91,16.69 4.27,4.27 10.17,6.91 16.69,6.91 6.52,0 12.42,-2.64 16.68,-6.91 4.27,-4.27 6.91,-10.17 6.91,-16.69 0,-6.52 -2.64,-12.42 -6.91,-16.68z"/>
 </g>
</svg>
