<?xml version="1.0" encoding="UTF-8"?>
<!DOCTYPE svg PUBLIC "-//W3C//DTD SVG 1.1//EN" "http://www.w3.org/Graphics/SVG/1.1/DTD/svg11.dtd">
<!-- Creator: CorelDRAW -->
<svg xmlns="http://www.w3.org/2000/svg" xml:space="preserve" width="6.8575mm" height="6.8575mm" version="1.1" style="shape-rendering:geometricPrecision; text-rendering:geometricPrecision; image-rendering:optimizeQuality; fill-rule:evenodd; clip-rule:evenodd"
viewBox="0 0 108.35 108.35"
 xmlns:xlink="http://www.w3.org/1999/xlink"
 xmlns:xodm="http://www.corel.com/coreldraw/odm/2003">
 <defs>
  <style type="text/css">
   <![CDATA[
    .fil0 {fill:white;fill-rule:nonzero}
   ]]>
  </style>
 </defs>
 <g id="Layer_x0020_1">
  <metadata id="CorelCorpID_0Corel-Layer"/>
  <path class="fil0" d="M54.18 0c14.96,0 28.5,6.07 38.31,15.87 9.8,9.8 15.87,23.35 15.87,38.31 0,14.96 -6.07,28.51 -15.87,38.31 -9.8,9.8 -23.35,15.87 -38.31,15.87 -14.96,0 -28.51,-6.07 -38.31,-15.87 -9.8,-9.8 -15.87,-23.35 -15.87,-38.31 0,-14.96 6.07,-28.5 15.87,-38.31 9.8,-9.8 23.35,-15.87 38.31,-15.87zm36.73 17.45c-9.4,-9.4 -22.39,-15.21 -36.73,-15.21 -14.34,0 -27.33,5.82 -36.73,15.21 -9.4,9.4 -15.21,22.39 -15.21,36.73 0,14.34 5.82,27.33 15.21,36.73 9.4,9.4 22.39,15.21 36.73,15.21 14.34,0 27.33,-5.82 36.73,-15.21 9.4,-9.4 15.21,-22.39 15.21,-36.73 0,-14.34 -5.82,-27.33 -15.21,-36.73zm-20.39 34.94c0,-9.03 -7.35,-16.36 -16.36,-16.36 -9.01,0 -16.36,7.33 -16.36,16.36 0,9.01 7.33,16.36 16.36,16.36 9.03,0 16.36,-7.35 16.36,-16.36zm-16.36 14.25c-7.86,0 -14.26,-6.39 -14.26,-14.26 0,-7.87 6.4,-14.25 14.26,-14.25 7.86,0 14.26,6.39 14.26,14.26 0,7.87 -6.4,14.25 -14.26,14.25zm20.05 2.68c0.59,-0.3 1.12,-0.7 1.52,-1.25 1.06,-1.46 0.81,-3.36 0.58,-5.21 -0.16,-1.19 -0.32,-2.44 -0.04,-3.28 0.25,-0.79 1.09,-1.67 1.89,-2.5 1.25,-1.31 2.65,-2.8 2.65,-4.67 0,-1.88 -1.39,-3.39 -2.64,-4.7 -0.8,-0.85 -1.64,-1.72 -1.89,-2.51 -0.27,-0.84 -0.12,-2.09 0.04,-3.28 0.24,-1.85 0.47,-3.75 -0.58,-5.21 -1.06,-1.47 -2.96,-1.82 -4.8,-2.18 -1.18,-0.22 -2.4,-0.45 -3.1,-0.96 -0.7,-0.5 -1.27,-1.57 -1.84,-2.62 -0.85,-1.58 -1.84,-3.36 -3.58,-3.94 -1.68,-0.55 -3.4,0.26 -5.07,1.05 -1.11,0.52 -2.26,1.06 -3.17,1.06 -0.92,0 -2.06,-0.54 -3.17,-1.06 -1.67,-0.79 -3.39,-1.6 -5.06,-1.05 -1.76,0.56 -2.68,2.28 -3.58,3.94 -0.56,1.03 -1.16,2.12 -1.84,2.62 -0.71,0.51 -1.92,0.75 -3.1,0.96 -1.84,0.34 -3.74,0.71 -4.8,2.18 -1.06,1.46 -0.81,3.36 -0.58,5.21 0.16,1.19 0.31,2.44 0.04,3.28 -0.25,0.79 -1.09,1.67 -1.89,2.51 -1.25,1.31 -2.65,2.79 -2.65,4.67 0,1.87 1.42,3.36 2.65,4.67 0.8,0.85 1.64,1.72 1.89,2.51 0.27,0.84 0.12,2.09 -0.04,3.28 -0.24,1.85 -0.47,3.75 0.58,5.21 0.41,0.55 0.93,0.96 1.52,1.25l-5.72 9.91c-0.21,0.37 -0.18,0.82 0.08,1.17 0.26,0.34 0.7,0.49 1.1,0.38l8.45 -2.27 2.27 8.45c0.11,0.41 0.46,0.71 0.88,0.77 0.05,0 0.09,0.01 0.13,0.01 0.37,0 0.72,-0.2 0.91,-0.52l5.37 -9.3c1.14,-0.13 2.29,-0.67 3.41,-1.19 1.12,-0.53 2.26,-1.06 3.17,-1.06 0.92,0 2.06,0.54 3.18,1.06 1.12,0.52 2.27,1.07 3.41,1.19l5.37 9.3c0.18,0.33 0.54,0.52 0.91,0.52 0.04,0 0.09,0 0.13,-0.01 0.42,-0.05 0.76,-0.35 0.88,-0.77l2.27 -8.45 8.45 2.27c0.41,0.1 0.84,-0.04 1.1,-0.38 0.26,-0.34 0.29,-0.8 0.08,-1.17l-5.76 -9.88zm-32.55 14.64l-1.87 -7.02c-0.15,-0.56 -0.72,-0.89 -1.29,-0.75l-7.02 1.88 4.67 -8.1c0.41,0.09 0.83,0.17 1.25,0.25 1.18,0.22 2.4,0.45 3.09,0.96 0.7,0.5 1.27,1.58 1.84,2.62 0.76,1.4 1.61,2.97 3.03,3.7l-3.7 6.45zm12.5 -10.42c-1.39,0 -2.75,0.64 -4.07,1.26 -1.3,0.62 -2.64,1.25 -3.52,0.96 -0.96,-0.31 -1.68,-1.65 -2.39,-2.94 -0.68,-1.25 -1.38,-2.53 -2.45,-3.32 -1.09,-0.79 -2.55,-1.06 -3.95,-1.33 -1.43,-0.28 -2.91,-0.55 -3.5,-1.34 -0.56,-0.77 -0.38,-2.27 -0.2,-3.7 0.18,-1.43 0.37,-2.9 -0.05,-4.2 -0.41,-1.23 -1.4,-2.3 -2.36,-3.31 -1.02,-1.08 -2.09,-2.19 -2.09,-3.23 0,-1.04 1.06,-2.15 2.09,-3.23 0.97,-1.02 1.97,-2.07 2.36,-3.31 0.42,-1.3 0.24,-2.77 0.05,-4.2 -0.18,-1.44 -0.37,-2.92 0.2,-3.7 0.58,-0.8 2.06,-1.08 3.5,-1.34 1.4,-0.26 2.86,-0.54 3.95,-1.33 1.07,-0.77 1.77,-2.07 2.45,-3.32 0.71,-1.3 1.43,-2.62 2.39,-2.94 0.89,-0.29 2.23,0.34 3.52,0.96 1.31,0.62 2.68,1.26 4.07,1.26 1.39,0 2.76,-0.64 4.07,-1.26 1.3,-0.62 2.64,-1.25 3.52,-0.96 0.96,0.32 1.68,1.65 2.39,2.94 0.68,1.25 1.38,2.53 2.45,3.32 1.09,0.79 2.55,1.06 3.95,1.33 1.43,0.27 2.91,0.55 3.5,1.34 0.56,0.77 0.38,2.27 0.2,3.7 -0.18,1.43 -0.37,2.9 0.05,4.2 0.41,1.23 1.4,2.29 2.36,3.31 1.02,1.08 2.09,2.19 2.09,3.23 0,1.03 -1.06,2.15 -2.09,3.23 -0.97,1.02 -1.97,2.07 -2.36,3.31 -0.42,1.3 -0.24,2.77 -0.05,4.2 0.18,1.44 0.37,2.92 -0.2,3.7 -0.58,0.8 -2.06,1.08 -3.5,1.34 -1.4,0.26 -2.86,0.54 -3.95,1.33 -1.07,0.77 -1.77,2.07 -2.45,3.32 -0.71,1.3 -1.43,2.62 -2.39,2.94 -0.89,0.29 -2.23,-0.34 -3.52,-0.96 -1.31,-0.62 -2.68,-1.26 -4.07,-1.26zm15.66 2.65c-0.56,-0.15 -1.14,0.18 -1.28,0.75l-1.88 7.02 -3.71 -6.43c1.4,-0.72 2.23,-2.23 3.03,-3.7 0.56,-1.04 1.16,-2.13 1.84,-2.62 0.71,-0.51 1.92,-0.75 3.1,-0.96 0.42,-0.08 0.84,-0.16 1.25,-0.25l4.67 8.09 -7.01 -1.9zm-5.82 -30.23c-0.41,-0.41 -1.08,-0.41 -1.48,0l-10.63 10.63 -6.07 -6.08c-0.41,-0.41 -1.08,-0.41 -1.48,0 -0.41,0.41 -0.41,1.08 0,1.48l6.82 6.82c0.2,0.2 0.46,0.3 0.75,0.3 0.29,0 0.55,-0.1 0.75,-0.3l11.35 -11.37c0.41,-0.41 0.41,-1.07 0,-1.48l0 0z"/>
 </g>
</svg>
