<svg xmlns="http://www.w3.org/2000/svg" viewBox="0 0 50 50" width="50" height="50"><style>.a{fill:#fff}</style><path fill-rule="evenodd" class="a" d="m24.6 0c6.8 0 13 2.7 17.4 7.2 4.5 4.4 7.2 10.6 7.2 17.4 0 6.8-2.7 12.9-7.2 17.4-4.4 4.4-10.6 7.2-17.4 7.2-6.8 0-12.9-2.8-17.4-7.2-4.4-4.5-7.2-10.6-7.2-17.4 0-6.8 2.8-13 7.2-17.4 4.5-4.5 10.6-7.2 17.4-7.2zm16.7 7.9c-4.3-4.3-10.2-6.9-16.7-6.9-6.5 0-12.4 2.6-16.7 6.9-4.2 4.3-6.9 10.2-6.9 16.7 0 6.5 2.7 12.4 6.9 16.7 4.3 4.2 10.2 6.9 16.7 6.9 6.5 0 12.4-2.7 16.7-6.9 4.3-4.3 6.9-10.2 6.9-16.7 0-6.5-2.6-12.4-6.9-16.7zm-1.2 17.1c0.5 0.5 0.6 1.3 0 1.7l-7.3 6.1 0.5 1.6c0.3 0.8-0.4 1.6-1.2 1.4l-2.4-0.4c-0.6-0.1-0.4-1 0.1-0.9l2.5 0.4q0.2 0 0.1-0.2l-0.6-1.9c-0.1-0.1 0-0.3 0.1-0.5l7.6-6.3q0.2-0.1 0-0.3c-0.9-0.8-1.3-2.1-0.9-3.3l0.6-1.9q0-0.2-0.2-0.2l-1.4 0.2c-1.4 0.3-2.8-0.3-3.7-1.4q-0.2-0.1-0.3 0l-4.5 4.9c-0.3 0.3-0.9 0-0.8-0.4l2-10q0-0.2-0.2-0.2-0.4 0-0.9 0c-1.5 0-3-0.9-3.8-2.3l-0.7-1.4q-0.1-0.2-0.3 0c-0.3 0.7-0.6 1.4-1 2-0.4 0.5-1.1 0-0.8-0.5 0.4-0.6 0.7-1.3 1-1.9 0.4-0.8 1.6-0.8 2 0l0.6 1.4c0.7 1.3 2.2 2 3.7 1.7 0.7-0.1 1.4 0.6 1.3 1.3l-1.7 8.4 3.4-3.6c0.4-0.5 1.3-0.5 1.7 0 0.6 0.9 1.8 1.3 2.8 1.1l1.4-0.2c0.8-0.2 1.5 0.6 1.2 1.4l-0.6 1.9c-0.2 0.9 0 1.8 0.7 2.4zm-12.9 9c0.6 0.1 0.4 1.1-0.2 1l-2-0.4v5.4c0 0.2-0.2 0.4-0.5 0.4-0.2 0-0.4-0.2-0.4-0.4v-5.4l-7.1 1.2c-0.8 0.1-1.5-0.7-1.2-1.4l0.5-1.6-7.2-6c-0.6-0.5-0.5-1.5 0.3-1.9l0.8-0.3-1.2-3.9c-0.2-0.8 0.5-1.5 1.3-1.4l3.6 0.6 0.6-1.1c0.3-0.7 1.3-0.9 1.8-0.3l3.3 3.6-1.7-8.4c-0.1-0.7 0.6-1.4 1.4-1.3 0.5 0.2 1 0.1 1.5 0 0.6-0.2 0.8 0.7 0.3 0.9-0.7 0.2-1.4 0.2-2 0.1q-0.3-0.1-0.3 0.2l2 9.9c0.1 0.5-0.5 0.8-0.8 0.4l-4.4-4.8q-0.2-0.1-0.3 0l-0.7 1.6c-0.1 0.1-0.3 0.3-0.5 0.2l-4-0.7q-0.2 0-0.2 0.2l1.4 4.3c0 0.2-0.1 0.4-0.3 0.5l-1.3 0.6q-0.1 0.1 0 0.3l7.5 6.2c0.1 0.1 0.2 0.3 0.1 0.5l-0.6 1.8q-0.1 0.3 0.2 0.3l7.2-1.2h0.9l2.2 0.3z"></path></svg>