<svg xmlns="http://www.w3.org/2000/svg" viewBox="0 0 61 61" width="61" height="61"><style>.a{fill:#fff}</style><path fill-rule="evenodd" class="a" d="m30.1 0c8.3 0 15.8 3.4 21.2 8.8 5.5 5.4 8.9 13 8.9 21.3 0 8.3-3.4 15.8-8.9 21.2-5.4 5.5-12.9 8.9-21.2 8.9-8.3 0-15.9-3.4-21.3-8.9-5.4-5.4-8.8-12.9-8.8-21.2 0-8.3 3.4-15.9 8.8-21.3 5.4-5.4 13-8.8 21.3-8.8zm20.4 9.7c-5.2-5.2-12.5-8.5-20.4-8.5-8 0-15.2 3.3-20.4 8.5-5.2 5.2-8.5 12.4-8.5 20.4 0 7.9 3.3 15.2 8.5 20.4 5.2 5.2 12.4 8.4 20.4 8.4 7.9 0 15.2-3.2 20.4-8.4 5.2-5.2 8.4-12.4 8.4-20.4 0-8-3.2-15.2-8.4-20.4zm-5.8 31.4c-1.7 0-3.1-1.2-3.4-2.8h0.6c0.4 0 0.6-0.3 0.6-0.7 0-0.3-0.2-0.6-0.6-0.6h-0.6c0.3-1.6 1.7-2.9 3.4-2.9 1.7 0 3.2 1.3 3.5 2.9h-0.6c-0.4 0-0.6 0.3-0.6 0.6 0 0.4 0.2 0.7 0.6 0.7h0.6c-0.3 1.6-1.7 2.8-3.5 2.8zm-3.4-2.8h-1.5q-0.1 0-0.2 0h0.1c0.4 0 0.7-0.3 0.7-0.7v-12.9h4.7c0.6 0 1.1 0.3 1.4 0.8l3.4 6.2q0.5 0.9 0.5 1.9v3.6c0 0.6-0.5 1.1-1.1 1.1h-1.1q0-0.4 0-0.7 0-0.3 0-0.6h1v-3.4q0-0.7-0.4-1.3l-3.4-6.2q-0.1-0.1-0.3-0.1h-4.7v11h0.9q0 0.3 0 0.6 0 0.3 0 0.7zm-1.7 0h-9.8q0.1-0.4 0.1-0.7 0-0.3-0.1-0.6h9.3v0.6c0 0.3 0.2 0.6 0.5 0.7zm-0.5-13q0-0.1 0-0.1v11.8zm0-0.2v-4.8h-21v2h-1.3v-2.1c0-0.7 0.5-1.2 1.2-1.2h21.2c0.7 0 1.2 0.5 1.2 1.2v4.4h-0.6c-0.3 0-0.6 0.2-0.7 0.5zm-21-2.2c0 0.4-0.3 0.6-0.6 0.6-0.4 0-0.7-0.2-0.7-0.6v-0.6h-2.7c-0.4 0-0.7 0.3-0.7 0.6 0 0.4 0.3 0.6 0.7 0.6h7.7c0.4 0 0.7-0.2 0.7-0.6 0-0.3-0.3-0.6-0.7-0.6h-3.7zm26.7 12.4c-1.3 0-2.3 1-2.3 2.2 0 1.2 1 2.2 2.3 2.2 1.2 0 2.2-1 2.2-2.2 0-1.2-1-2.2-2.2-2.2zm-18.4 5.7c-1.7 0-3.1-1.2-3.4-2.8h0.6c0.3 0 0.5-0.3 0.6-0.6 0 1.2 1 2.1 2.2 2.1 1.2 0 2.2-1 2.2-2.2 0-1.2-1-2.2-2.2-2.2-1.2 0-2.2 0.9-2.2 2.1-0.1-0.3-0.3-0.5-0.6-0.5h-0.6c0.3-1.6 1.7-2.9 3.4-2.9 1.7 0 3.1 1.3 3.4 2.9h-0.6c-0.3 0-0.6 0.3-0.6 0.6 0 0.4 0.3 0.7 0.6 0.7h0.6c-0.3 1.6-1.7 2.8-3.4 2.8zm-3.4-2.8h-5.5c-0.4 0-0.7-0.3-0.7-0.7v-4.2h1.3v3.6h4.9q-0.1 0.3-0.1 0.6 0 0.3 0.1 0.7zm-6.2-4.9h-4.9c-0.4 0-0.6-0.3-0.6-0.7 0-0.3 0.2-0.6 0.6-0.6h5.5c-0.3 0-0.6 0.3-0.6 0.6zm3.2-1.3c0.3 0 0.6 0.3 0.6 0.7 0 0.3-0.3 0.6-0.6 0.6h-1.9v-0.6c0-0.4-0.3-0.7-0.6-0.7-0.1 0 2.5 0 2.5 0zm4.2 5.5q0 0 0 0.1 0 0 0 0.1 0-0.1 0-0.1 0-0.1 0-0.1zm-6.7-7.1c0.3 0 0.6-0.3 0.6-0.6v-0.7h8.3c0.3 0 0.6 0.3 0.6 0.7 0 0.3-0.2 0.6-0.6 0.6h-11.3c-0.3 0-0.6-0.3-0.6-0.6 0-0.4 0.3-0.7 0.6-0.7h1.7v0.7c0 0.3 0.3 0.6 0.7 0.6zm-0.7-4.9c0-0.3 0.3-0.6 0.7-0.6 0.3 0 0.6 0.3 0.6 0.6v3.7h-1.3zm-2 1.5h-4.4c-0.4 0-0.7-0.3-0.7-0.6 0-0.4 0.3-0.7 0.7-0.7h4.4c0.3 0 0.6 0.3 0.6 0.7 0 0.3-0.3 0.6-0.6 0.6z"></path></svg>